<?xml version="1.0" standalone="no"?>
<svg  xmlns="http://www.w3.org/2000/svg"
 width="512.000000pt" height="512.000000pt" viewBox="0 0 512.000000 512.000000"
 preserveAspectRatio="xMidYMid meet">

<g transform="translate(0.000000,512.000000) scale(0.100000,-0.100000)"
fill="currentColor" stroke="none">
<path d="M1300 5111 c-90 -29 -163 -90 -208 -174 l-27 -52 0 -2325 0 -2325 27
-52 c35 -67 85 -116 151 -150 45 -24 64 -28 137 -28 73 0 92 4 137 28 66 34
116 83 151 150 l27 52 3 1032 2 1032 498 3 497 4 120 32 c238 64 502 218 666
388 161 167 300 413 361 639 32 118 32 123 32 345 0 222 0 227 -32 345 -64
238 -218 502 -388 666 -166 161 -412 299 -639 361 l-120 33 -685 2 c-377 1
-696 -2 -710 -6z m1266 -642 c98 -13 226 -56 301 -100 74 -44 218 -188 262
-262 45 -77 87 -206 101 -311 20 -150 -21 -347 -101 -483 -44 -74 -188 -218
-262 -262 -75 -44 -203 -87 -301 -100 -44 -6 -240 -11 -456 -11 -331 0 -381 2
-394 16 -14 14 -16 96 -16 754 0 658 2 740 16 754 13 14 63 16 394 16 216 0
412 -5 456 -11z"/>
</g>
</svg>
